<?xml version="1.0" encoding="UTF-8" standalone="no"?>
<!DOCTYPE svg PUBLIC "-//W3C//DTD SVG 1.1//EN" "http://www.w3.org/Graphics/SVG/1.1/DTD/svg11.dtd">
<svg version="1.1" xmlns="http://www.w3.org/2000/svg" xmlns:xlink="http://www.w3.org/1999/xlink" preserveAspectRatio="xMidYMid meet" viewBox="81.94000000000001 286.37 475.5699999999999 69.25999999999999" width="471.57" height="65.26"><defs><path d="M86.96 289.38L107.03 289.38L121.95 292.25L133.42 300.85L135.71 312.9L129.4 320.93L119.65 324.95L129.4 338.71L129.4 347.89L123.09 350.19L114.49 347.89L110.47 341.01L104.16 328.39L102.44 341.01L97.86 350.19L90.97 350.19L86.96 345.02L86.96 333.55L90.97 305.44L82.94 296.27L86.96 289.38Z" id="aMuPupkI"></path><path d="M173.23 287.37L188.71 298.27L196.17 324.09L192.73 341.3L180.11 352.19L159.46 352.19L146.84 345.31L141.11 335.56L139.96 317.78L148.56 302.29L155.45 293.68L173.23 287.37Z" id="a4ab8bU8uS"></path><path d="M200.19 289.38L220.26 289.38L235.18 292.25L246.65 300.85L248.94 312.9L242.63 320.93L232.88 324.95L242.63 338.71L242.63 347.89L236.32 350.19L227.72 347.89L223.7 341.01L217.4 328.39L215.67 341.01L211.09 350.19L204.2 350.19L200.19 345.02L200.19 333.55L204.2 305.44L196.17 296.27L200.19 289.38Z" id="a17L6AMOGf"></path><path d="M286.46 287.37L301.94 298.27L309.4 324.09L305.96 341.3L293.34 352.19L272.69 352.19L260.07 345.31L254.34 335.56L253.19 317.78L261.79 302.29L268.68 293.68L286.46 287.37Z" id="a1qCslLlNj"></path><path d="M313.42 289.38L333.49 289.38L348.41 292.25L359.88 300.85L362.17 312.9L355.86 320.93L346.11 324.95L355.86 338.71L355.86 347.89L349.55 350.19L340.95 347.89L336.93 341.01L330.63 328.39L328.9 341.01L324.32 350.19L317.43 350.19L313.42 345.02L313.42 333.55L317.43 305.44L309.4 296.27L313.42 289.38Z" id="bg7bqFwdF"></path><path d="M399.69 287.37L415.18 298.27L422.63 324.09L419.19 341.3L406.57 352.19L385.92 352.19L373.3 345.31L367.57 335.56L366.42 317.78L375.02 302.29L381.91 293.68L399.69 287.37Z" id="b4HgYPc7v"></path><path d="M527.4 296.41L533.42 306.2L538.69 294.15L545.47 287.37L554.51 294.15L554.51 306.2L550.74 314.48L538.69 321.26L538.69 352.63L529.66 352.63L523.63 346.87L523.63 321.26L515.35 309.97L512.34 294.15L521.37 287.37L527.4 296.41Z" id="e44wuqIgNH"></path><path d="M446.24 289.71L452.06 289.71L461.74 297.94L458.84 312.96L453.51 321.19L458.84 330.4L458.84 342.51L452.06 352.19L427.35 352.19L421.54 348.32L425.9 330.4L427.35 317.32L427.35 310.54L424.45 297.94L433.16 287.37L446.24 289.71Z" id="a5v82kx3e"></path><path d="M491.84 289.71L497.65 289.71L507.34 297.94L504.43 312.96L499.1 321.19L504.43 330.4L504.43 342.51L497.65 352.19L472.94 352.19L467.13 348.32L471.49 330.4L472.94 317.32L472.94 310.54L470.04 297.94L478.76 287.37L491.84 289.71Z" id="b103a17opt"></path></defs><g><g><use xlink:href="#aMuPupkI" opacity="1" fill="#3471eb" fill-opacity="1"></use><g><use xlink:href="#aMuPupkI" opacity="1" fill-opacity="0" stroke="#000000" stroke-width="1" stroke-opacity="0"></use></g></g><g><use xlink:href="#a4ab8bU8uS" opacity="1" fill="#3471eb" fill-opacity="1"></use><g><use xlink:href="#a4ab8bU8uS" opacity="1" fill-opacity="0" stroke="#000000" stroke-width="1" stroke-opacity="0"></use></g></g><g><use xlink:href="#a17L6AMOGf" opacity="1" fill="#3471eb" fill-opacity="1"></use><g><use xlink:href="#a17L6AMOGf" opacity="1" fill-opacity="0" stroke="#000000" stroke-width="1" stroke-opacity="0"></use></g></g><g><use xlink:href="#a1qCslLlNj" opacity="1" fill="#3471eb" fill-opacity="1"></use><g><use xlink:href="#a1qCslLlNj" opacity="1" fill-opacity="0" stroke="#000000" stroke-width="1" stroke-opacity="0"></use></g></g><g><use xlink:href="#bg7bqFwdF" opacity="1" fill="#3471eb" fill-opacity="1"></use><g><use xlink:href="#bg7bqFwdF" opacity="1" fill-opacity="0" stroke="#000000" stroke-width="1" stroke-opacity="0"></use></g></g><g><use xlink:href="#b4HgYPc7v" opacity="1" fill="#3471eb" fill-opacity="1"></use><g><use xlink:href="#b4HgYPc7v" opacity="1" fill-opacity="0" stroke="#000000" stroke-width="1" stroke-opacity="0"></use></g></g><g><use xlink:href="#e44wuqIgNH" opacity="1" fill="#3471eb" fill-opacity="1"></use><g><use xlink:href="#e44wuqIgNH" opacity="1" fill-opacity="0" stroke="#000000" stroke-width="1" stroke-opacity="0"></use></g></g><g><use xlink:href="#a5v82kx3e" opacity="1" fill="#3471eb" fill-opacity="1"></use><g><use xlink:href="#a5v82kx3e" opacity="1" fill-opacity="0" stroke="#000000" stroke-width="1" stroke-opacity="0"></use></g></g><g><use xlink:href="#b103a17opt" opacity="1" fill="#3471eb" fill-opacity="1"></use><g><use xlink:href="#b103a17opt" opacity="1" fill-opacity="0" stroke="#000000" stroke-width="1" stroke-opacity="0"></use></g></g></g></svg>
